; NON-PLATED HOLES START AT T1
; THROUGH (PLATED) HOLES START AT T100
M48
INCH
T100C0.040255
T101C0.038000
T102C0.051181
T103C0.043307
%
T100
X019059Y002735
X007071Y003735
X018052Y003735
X012065Y002735
X019065Y035735
X005059Y002735
X011059Y003735
X013071Y002735
X029040Y035735
X024065Y002735
X016040Y003735
X025052Y036735
X019065Y036735
X006046Y036735
X013052Y035735
X031052Y035735
X010052Y002735
X025071Y003735
X018052Y002735
X012046Y036735
X006065Y002735
X028052Y003735
X028033Y036735
X012046Y035735
X022033Y035735
X023059Y002735
X022033Y036735
X010052Y003735
X007052Y036735
X025052Y035735
X017052Y035735
X030065Y003735
X007071Y002735
X017046Y002735
X023040Y035735
X023059Y003735
X016046Y035735
X022052Y003735
X023040Y036735
X018059Y036735
X016046Y036735
X029040Y036735
X029059Y003735
X006046Y035735
X010033Y036735
X030046Y036735
X005059Y003735
X004052Y002735
X024065Y003735
X007052Y035735
X011040Y036735
X031071Y002735
X028052Y002735
X024046Y036735
X030046Y035735
X004052Y003735
X004033Y036735
X012065Y003735
X017046Y003735
X016040Y002735
X004033Y035735
X025071Y002735
X013052Y036735
X005039Y036735
X022052Y002735
X031052Y036735
X029059Y002735
X019059Y003735
X017052Y036735
X028033Y035735
X018059Y035735
X030065Y002735
X010033Y035735
X013071Y003735
X031071Y003735
X005039Y035735
X006065Y003735
X024046Y035735
X011040Y035735
X011059Y002735
T101
X012059Y016735
X012059Y023735
X027948Y023735
T102
X036059Y022735
X003059Y019767
X003059Y021735
X036059Y024704
X036059Y018704
X036059Y016735
T103
X027948Y016735
T00
M30
